<svg width="60" height="60" viewBox="0 0 60 60" fill="none" xmlns="http://www.w3.org/2000/svg">
<path d="M37.5535 25.3821C33.5446 25.3944 31.6565 23.9755 30.7713 22.5807C30.5272 22.655 30.2687 22.6946 30.0002 22.6946C29.732 22.6946 29.4733 22.655 29.2291 22.5805C28.3438 23.9756 26.4557 25.3944 22.4468 25.3821C20.1582 25.375 20.3469 23.4105 20.6739 22.7443C21.195 21.6824 22.1812 21.1121 22.1812 20.05C22.1812 18.9874 21.1951 18.4175 20.6739 17.3555C20.3469 16.6894 20.1583 14.7248 22.4468 14.7177C26.4557 14.7054 28.3439 16.1241 29.2291 17.5192C29.4732 17.4448 29.7317 17.4049 30.0002 17.4049C30.2684 17.4049 30.5271 17.4448 30.7713 17.5192C31.6566 16.1239 33.5446 14.7054 37.5535 14.7177C39.8422 14.7248 39.6534 16.6893 39.3263 17.3555C38.8052 18.4175 37.8193 18.9874 37.8193 20.05C37.8193 21.1121 38.8052 21.6824 39.3263 22.7443C39.6534 23.4104 39.842 25.3751 37.5535 25.3821ZM15.0391 4.9023C10.4438 7.55566 3.52121 17.3754 1.25 21.3089C2.36926 23.9087 5.29531 27.1273 8.50941 29.1152C9.70062 27.9085 13.0415 24.1035 14.7869 21.743C16.3855 25.616 11.3087 46.8034 11.3087 55.0977H30.0001H48.6912C48.6912 46.8033 43.6146 25.616 45.2134 21.743C46.9586 24.1035 50.2996 27.9084 51.4909 29.1152C54.7048 27.1273 57.6308 23.9087 58.7498 21.3089C56.4792 17.3754 49.5564 7.55577 44.9607 4.9023C37.7442 12.1192 22.2561 12.1192 15.0391 4.9023Z" fill="#F99A98"/>
<path d="M30.7715 22.5806C31.6568 23.9755 33.5448 25.3943 37.5537 25.382C39.8424 25.3748 39.6536 23.4104 39.3265 22.7442C38.8054 21.6822 37.8195 21.112 37.8195 20.0498C37.8195 18.9873 38.8054 18.4174 39.3265 17.3553C39.6536 16.6892 39.8423 14.7247 37.5537 14.7175C33.5448 14.7052 31.6567 16.1239 30.7715 17.519C31.8558 17.8491 32.6452 18.8572 32.6452 20.0497C32.6453 21.2424 31.8558 22.2505 30.7715 22.5806Z" fill="#F9EACD"/>
<path d="M30.7715 22.5807C31.8558 22.2505 32.6452 21.2425 32.6452 20.05C32.6452 18.8575 31.8558 17.8493 30.7715 17.5193C30.5274 17.4449 30.2686 17.4051 30.0004 17.4051C29.7323 17.4051 29.4735 17.4449 29.2293 17.5193C28.1447 17.8495 27.3555 18.8575 27.3555 20.05C27.3555 21.2422 28.1447 22.2507 29.2293 22.5804C29.4734 22.655 29.7319 22.6946 30.0004 22.6946C30.2688 22.6946 30.5274 22.655 30.7715 22.5807Z" fill="#7BA9D6"/>
<path d="M29.2285 22.5806C28.1439 22.2505 27.3547 21.2422 27.3547 20.05C27.3547 18.8575 28.1439 17.8493 29.2285 17.5193C28.3432 16.1241 26.4551 14.7055 22.4462 14.7178C20.1576 14.725 20.3463 16.6894 20.6733 17.3556C21.1944 18.4177 22.1806 18.9875 22.1806 20.0501C22.1806 21.1123 21.1945 21.6825 20.6733 22.7445C20.3463 23.4106 20.1577 25.3751 22.4462 25.3822C26.4551 25.3943 28.3433 23.9755 29.2285 22.5806Z" fill="#F9EACD"/>
<path d="M59.8325 20.6838C57.9153 17.3627 50.6863 6.76434 45.5856 3.81966C45.0954 3.53665 44.4768 3.61833 44.0768 4.01841C40.917 7.17837 35.6546 9.06497 30.0002 9.06497C24.3456 9.06497 19.0831 7.17837 15.9233 4.01829C15.5231 3.61844 14.9042 3.53677 14.4141 3.81966C9.31423 6.76423 2.08481 17.3625 0.167391 20.6838C-0.0298358 21.0255 -0.0542108 21.4406 0.101883 21.803C1.35895 24.7229 4.47333 28.0884 7.85184 30.1783C8.34766 30.4849 8.9895 30.4083 9.39919 29.9932C10.2105 29.1712 12.1299 27.0277 13.8418 24.9559C13.7047 28.4504 12.7782 34.2786 11.9924 39.2214C11.0418 45.202 10.0586 51.3862 10.0586 55.0975C10.0586 55.788 10.6183 56.3475 11.3086 56.3475H48.6913C48.692 56.3475 48.693 56.3474 48.6938 56.3475C49.3843 56.3475 49.9438 55.7879 49.9438 55.0975C49.9438 55.0699 49.9428 55.0425 49.9413 55.0154C49.9271 51.2952 48.9515 45.1581 48.0078 39.2216C47.2222 34.2788 46.2956 28.4504 46.1586 24.9559C47.8706 27.0279 49.7899 29.1713 50.6011 29.9932C51.0107 30.408 51.6524 30.4847 52.1484 30.1783C55.5272 28.0882 58.6415 24.7225 59.8981 21.8029C60.054 21.4406 60.0297 21.0256 59.8325 20.6838ZM51.6782 27.4948C50.2213 25.9134 47.6634 22.9541 46.2184 20.9998C45.9503 20.6372 45.5078 20.4472 45.0603 20.5024C44.6129 20.5573 44.2297 20.8492 44.0576 21.2661C43.0908 23.6086 43.972 29.7606 45.5384 39.6143C46.3708 44.8513 47.2285 50.2468 47.4072 53.8476H12.5924C12.7711 50.2466 13.6288 44.8511 14.4615 39.6141C16.0278 29.7605 16.9093 23.6086 15.9425 21.2659C15.7703 20.8492 15.3874 20.5573 14.9398 20.5022C14.492 20.4466 14.0499 20.6371 13.7818 20.9997C12.3371 22.9537 9.77887 25.913 8.322 27.4947C5.92973 25.8195 3.74384 23.4582 2.66348 21.3726C5.25813 17.0519 10.9416 9.3127 14.8979 6.48274C15.4347 6.95501 16.0096 7.3968 16.6175 7.80837C15.3757 9.03778 14.0943 10.4385 13.1366 11.5162C12.678 12.0322 12.7246 12.8224 13.2408 13.281C13.4788 13.4925 13.7752 13.5965 14.0707 13.5965C14.4155 13.5965 14.7585 13.4547 15.0057 13.1768C16.4471 11.5549 17.7871 10.1437 18.8609 9.11348C22.0593 10.7003 25.9018 11.565 30.0002 11.565C35.9815 11.565 41.4187 9.7238 45.1021 6.48262C49.0588 9.31294 54.7421 17.0521 57.3366 21.3726C56.2564 23.4582 54.0706 25.8194 51.6782 27.4948Z" fill="#000003"/>
<path d="M42.0839 41.8298C42.7666 41.7267 43.2364 41.0896 43.1334 40.407L43.1249 40.3524C43.0147 39.6707 42.3723 39.2071 41.6914 39.3178C41.0098 39.4279 40.5467 40.0698 40.6568 40.7513L40.6614 40.7806C40.7549 41.3999 41.2879 41.8441 41.8959 41.8441C41.9577 41.8441 42.0207 41.8395 42.0839 41.8298Z" fill="#000003"/>
<path d="M12.5567 14.0609C12.0314 13.6325 11.2624 13.7024 10.8217 14.2117C10.8045 14.2308 10.7883 14.25 10.779 14.2611C10.3403 14.7943 10.4169 15.5819 10.9499 16.0207C11.1825 16.2122 11.4637 16.3054 11.7435 16.3054C12.0943 16.3054 12.4425 16.1586 12.6889 15.8743C12.7079 15.853 12.7261 15.8315 12.7358 15.8196C13.172 15.2846 13.0917 14.4972 12.5567 14.0609Z" fill="#000003"/>
<path d="M42.2445 42.7775C41.5622 42.8831 41.0948 43.5219 41.2005 44.2042C41.4991 46.1324 41.7257 47.697 41.9137 49.1279C41.9623 49.4981 42.0115 49.8741 42.0597 50.2544C42.1397 50.8861 42.6778 51.3477 43.2982 51.3477C43.3506 51.3477 43.4035 51.3445 43.4568 51.3378C44.1418 51.2513 44.6267 50.6257 44.5401 49.9407C44.4914 49.5565 44.4416 49.1765 44.3925 48.8022C44.2021 47.3518 43.9729 45.7692 43.6711 43.8214C43.5653 43.1392 42.9271 42.6721 42.2445 42.7775Z" fill="#000003"/>
<path d="M40.4476 22.1936C40.1871 21.663 39.8635 21.2588 39.5781 20.9024C39.2525 20.4959 39.0684 20.2559 39.0684 20.05C39.0684 19.844 39.2526 19.604 39.5781 19.1975C39.8635 18.841 40.1871 18.437 40.4473 17.9066C40.8311 17.1251 40.96 15.8261 40.3358 14.821C39.9542 14.2063 39.1624 13.4727 37.5563 13.4678C37.538 13.4678 37.5205 13.4678 37.5021 13.4678C33.5211 13.4678 31.3751 14.8084 30.2227 16.1621C30.1485 16.1579 30.0742 16.155 29.9991 16.155C29.9239 16.155 29.8496 16.1576 29.7755 16.162C28.6179 14.8012 26.4576 13.4513 22.4419 13.4678C20.836 13.4729 20.0439 14.2065 19.6624 14.821C19.0383 15.8262 19.1671 17.1251 19.5506 17.9063C19.811 18.437 20.1346 18.8412 20.4201 19.1975C20.7456 19.604 20.9299 19.844 20.9299 20.05C20.9299 20.256 20.7455 20.4959 20.4201 20.9024C20.1346 21.2589 19.811 21.663 19.5507 22.1934C19.167 22.9749 19.0381 24.2739 19.6624 25.279C20.044 25.8936 20.836 26.6271 22.442 26.6321C22.4603 26.6322 22.4779 26.6322 22.4963 26.6322C26.477 26.6322 28.6231 25.2913 29.7754 23.9377C29.8495 23.9418 29.9239 23.9446 29.999 23.9446C30.0741 23.9446 30.1485 23.942 30.2226 23.9377C31.3748 25.2916 33.5204 26.6322 37.5019 26.6322C37.52 26.6322 37.538 26.6322 37.5562 26.6321C39.1623 26.627 39.9542 25.8936 40.3356 25.279C40.9599 24.2738 40.8311 22.9749 40.4476 22.1936ZM31.3939 20.05C31.3939 20.8189 30.7682 21.4444 29.9992 21.4444C29.2304 21.4444 28.6047 20.8189 28.6047 20.05C28.6047 19.2809 29.2304 18.6551 29.9992 18.6551C30.7682 18.6551 31.3939 19.2809 31.3939 20.05ZM22.4963 24.1321C22.481 24.1321 22.4651 24.1321 22.4497 24.132C22.1119 24.1309 21.8518 24.064 21.787 23.9613C21.6854 23.7999 21.7322 23.4275 21.7951 23.295C21.9343 23.0111 22.1469 22.746 22.3715 22.4652C22.8431 21.8765 23.4301 21.1437 23.4301 20.05C23.4301 18.9562 22.8432 18.2234 22.3714 17.6345C22.1466 17.3539 21.9344 17.0889 21.7951 16.805C21.7321 16.6724 21.6852 16.3 21.787 16.1386C21.8518 16.036 22.1118 15.969 22.4497 15.9679C22.4652 15.9679 22.4807 15.9679 22.4963 15.9679C24.6004 15.9679 26.2329 16.4044 27.3045 17.2417C26.5659 17.9511 26.1044 18.9474 26.1044 20.05C26.1044 21.1526 26.5656 22.1487 27.3045 22.858C26.2328 23.6955 24.6005 24.1321 22.4963 24.1321ZM37.6266 22.4652C37.8515 22.746 38.0637 23.011 38.2031 23.295C38.2661 23.4276 38.3128 23.7998 38.211 23.9613C38.1465 24.064 37.8863 24.1311 37.5486 24.132C37.533 24.1321 37.5175 24.1321 37.5019 24.1321C35.3978 24.1321 33.7654 23.6955 32.6937 22.858C33.4325 22.1488 33.894 21.1526 33.894 20.05C33.894 18.9476 33.4328 17.9513 32.694 17.242C33.7742 16.3981 35.4238 15.9604 37.5485 15.9679C37.8861 15.9691 38.1462 16.036 38.2109 16.1386C38.3125 16.3 38.2658 16.6724 38.203 16.805C38.0637 17.0889 37.8513 17.354 37.6265 17.6345C37.1551 18.2234 36.5681 18.9562 36.5681 20.05C36.5682 21.1436 37.1552 21.8765 37.6266 22.4652Z" fill="#000003"/>
</svg>
