<svg width="60" height="60" viewBox="0 0 60 60" fill="none" xmlns="http://www.w3.org/2000/svg">
<g clip-path="url(#clip0_2469_1607)">
<path d="M58.7692 38.0684L52.5329 27.2667L45.6803 15.3976H41.5609H28.0664V32.1531L30 33.7374C31.1841 33.7374 32.368 34.3233 33.0446 35.4952L40.59 48.564C41.3146 49.819 42.9193 50.2491 44.1744 49.5244L57.8088 41.6526C59.0638 40.9281 59.4938 39.3233 58.7692 38.0684V38.0684Z" fill="#7CE3FF"/>
<path d="M39.803 18.9133V15.3976H29.9999H18.2634L7.40678 27.3715L1.23089 38.0684C0.506315 39.3233 0.936276 40.9281 2.19135 41.6527L15.8258 49.5245C17.0807 50.2492 18.6856 49.8191 19.4102 48.5642L26.9555 35.4953C27.6321 34.3234 28.8161 33.7375 30.0002 33.7375V30.2782C30 24.5841 34.1705 19.749 39.803 18.9133V18.9133Z" fill="#2ED0FC"/>
<path d="M18.2629 21.6442V15.3976H14.3193L7.40625 27.3715C7.77668 27.6965 8.24906 27.9655 8.79305 28.1807C13.3423 29.9796 18.2629 26.5364 18.2629 21.6442V21.6442Z" fill="#1CBBEA"/>
<path d="M19.4358 11.882H14.3203C12.3787 11.882 10.8047 13.4561 10.8047 15.3976C10.8047 17.3392 12.3787 18.9133 14.3203 18.9133H26.3091V11.882H19.4358Z" fill="#BD7669"/>
<path d="M45.6803 11.882H40.389H26.3086V18.9133H40.3889H45.6802C47.6217 18.9133 49.1958 17.3392 49.1958 15.3976C49.1958 13.4561 47.6218 11.882 45.6803 11.882V11.882Z" fill="#CE857A"/>
<path d="M18.2637 20.5131C17.2929 20.5131 16.5059 19.7261 16.5059 18.7553V11.882C16.5059 10.9112 17.2929 10.1242 18.2637 10.1242C19.2345 10.1242 20.0215 10.9112 20.0215 11.882V18.7553C20.0215 19.7261 19.2345 20.5131 18.2637 20.5131Z" fill="#7CE3FF"/>
<path d="M33.3398 20.6711H28.0664C26.1279 20.6711 24.5508 19.094 24.5508 17.1554V13.6398C24.5508 11.7013 26.1279 10.1242 28.0664 10.1242H33.3398C34.3106 10.1242 35.0977 10.9112 35.0977 11.882C35.0977 12.8528 34.3106 13.6398 33.3398 13.6398H28.0664V17.1554H33.3398C34.3106 17.1554 35.0977 17.9425 35.0977 18.9133C35.0977 19.884 34.3107 20.6711 33.3398 20.6711Z" fill="#D4D4FF"/>
<path d="M53.7957 26.0442C53.1206 25.3467 52.0078 25.3285 51.3102 26.0035C51.1698 26.1394 50.8951 26.3438 50.3841 26.5459C48.7943 27.1747 47.0624 26.9775 45.632 26.0051C44.1833 25.0201 43.3184 23.3899 43.3184 21.6441V18.9131H39.8027V21.6441C39.8027 24.5551 41.243 27.2721 43.6553 28.9123C45.1168 29.906 46.8159 30.4157 48.5246 30.4157C49.59 30.4157 50.6591 30.2176 51.6769 29.8151C52.5184 29.4823 53.2175 29.0499 53.755 28.5298C54.4526 27.8548 54.4709 26.742 53.7957 26.0442V26.0442Z" fill="#D4D4FF"/>
<path d="M41.5605 20.6711C40.5898 20.6711 39.8027 19.884 39.8027 18.9133V11.882C39.8027 10.9112 40.5898 10.1242 41.5605 10.1242C42.5313 10.1242 43.3184 10.9112 43.3184 11.882V18.9133C43.3184 19.884 42.5313 20.6711 41.5605 20.6711Z" fill="#7CE3FF"/>
<path d="M21.635 33.8807C23.5067 33.8807 25.024 32.6724 25.024 31.1819C25.024 29.6914 23.5067 28.4831 21.635 28.4831C19.7634 28.4831 18.2461 29.6914 18.2461 31.1819C18.2461 32.6724 19.7634 33.8807 21.635 33.8807Z" fill="white"/>
<path d="M38.3636 33.8807C40.2352 33.8807 41.7525 32.6724 41.7525 31.1819C41.7525 29.6914 40.2352 28.4831 38.3636 28.4831C36.4919 28.4831 34.9746 29.6914 34.9746 31.1819C34.9746 32.6724 36.4919 33.8807 38.3636 33.8807Z" fill="white"/>
<path d="M59.5303 37.6289L55.7686 31.1134C55.7684 31.113 55.7682 31.1126 55.7679 31.1121C55.7675 31.1116 55.7673 31.1113 55.7671 31.1108L54.5365 28.9794C56.1435 27.1019 54.4982 24.228 52.0521 24.6763L48.5926 18.6845C49.5008 17.8788 50.0747 16.7042 50.0747 15.3975C50.0747 13.487 48.8546 11.8071 47.0388 11.2173C46.5773 11.0675 46.0814 11.3199 45.9314 11.7815C45.7814 12.2431 46.0341 12.7391 46.4957 12.889C47.585 13.2429 48.3169 14.2509 48.3169 15.3974C48.3169 16.8512 47.134 18.0341 45.6802 18.0341H44.1975V11.8817C44.1975 10.4279 43.0146 9.24502 41.5608 9.24502C40.415 9.24502 39.438 9.9799 39.0752 11.0028H35.8254C35.4626 9.9799 34.4857 9.24502 33.3398 9.24502H28.0664C26.6318 9.24502 25.3557 9.93619 24.5531 11.0028H20.7489C20.3861 9.9799 19.4092 9.24502 18.2633 9.24502C17.1175 9.24502 16.1406 9.9799 15.7778 11.0028H14.3197C11.8965 11.0028 9.9252 12.9742 9.9252 15.3974C9.9252 16.704 10.4991 17.8786 11.4073 18.6842L10.622 20.0443C10.3793 20.4647 10.5233 21.0022 10.9437 21.2449C11.3641 21.4876 11.9017 21.3436 12.1443 20.9232L12.9285 19.5648C13.3661 19.7113 13.8335 19.7919 14.3197 19.7919H15.8393C16.1272 20.473 16.6881 20.9978 17.3844 21.241V21.6439C17.3844 25.8615 13.1401 28.9547 9.11672 27.3631C8.91914 27.285 8.73809 27.2003 8.57227 27.1101L10.3813 23.9768C10.624 23.5564 10.48 23.0189 10.0596 22.7762C9.63914 22.5336 9.10172 22.6773 8.85902 23.0979L0.469687 37.6289C0.162422 38.1613 0 38.766 0 39.3778C0 40.6265 0.671367 41.7899 1.75195 42.4138L15.3863 50.2856C17.0668 51.2557 19.2089 50.6701 20.1714 49.0036L27.7166 35.9347C28.1932 35.1092 29.0469 34.6163 30.0001 34.6163C30.9533 34.6163 31.8069 35.1092 32.2836 35.9347L39.8289 49.0036C40.7924 50.6722 42.9352 51.2545 44.6139 50.2856L58.2483 42.4138C59.3289 41.79 60 40.6267 60 39.3779C60 38.7661 59.8376 38.1613 59.5303 37.6289V37.6289ZM53.1643 26.6556C53.5014 27.0038 53.4923 27.5614 53.1445 27.8981C51.576 29.414 47.6329 30.5538 44.1497 28.1857C42.0567 26.7627 40.6819 24.4413 40.6819 21.3989C41.2504 21.6003 41.8704 21.6007 42.4397 21.3989C42.4397 26.165 46.8698 28.881 50.7074 27.3634C51.2257 27.1584 51.6342 26.9134 51.9217 26.6351C52.2558 26.3115 52.817 26.2963 53.1643 26.6556V26.6556ZM35.8254 18.0343C35.4626 17.0114 34.4857 16.2765 33.3398 16.2765H28.9453V14.5187H33.3398C34.4856 14.5187 35.4626 13.7838 35.8254 12.7609H38.9241V18.0343H35.8254ZM47.0714 19.5653L50.5056 25.5132C47.9418 27.0766 44.1976 25.0483 44.1976 21.6442V19.7921H45.6803C46.1665 19.7921 46.6339 19.7116 47.0714 19.5653V19.5653ZM40.682 11.882C40.682 11.3973 41.0762 11.0031 41.5609 11.0031C42.0456 11.0031 42.4398 11.3973 42.4398 11.882V18.9132C42.4398 19.3979 42.0456 19.7921 41.5609 19.7921C41.0762 19.7921 40.682 19.3979 40.682 18.9132V11.882ZM25.4297 13.6398C25.4297 12.186 26.6125 11.0031 28.0664 11.0031H33.3398C33.8245 11.0031 34.2188 11.3973 34.2188 11.882C34.2188 12.3667 33.8245 12.7609 33.3398 12.7609H28.0664C27.581 12.7609 27.1875 13.1543 27.1875 13.6398V17.1554C27.1875 17.6409 27.581 18.0343 28.0664 18.0343H33.3398C33.8245 18.0343 34.2188 18.4285 34.2188 18.9132C34.2188 19.3979 33.8245 19.7921 33.3398 19.7921H28.0664C26.6125 19.7921 25.4297 18.6092 25.4297 17.1554V13.6398ZM23.7604 18.0343H20.9002V12.7609H23.7604C23.7025 13.0449 23.6719 13.3388 23.6719 13.6398V17.1554C23.6719 17.4565 23.7025 17.7503 23.7604 18.0343ZM17.3845 11.882C17.3845 11.3973 17.7788 11.0031 18.2634 11.0031C18.7481 11.0031 19.1423 11.3973 19.1423 11.882V18.7553C19.1423 19.2376 18.7432 19.6342 18.2634 19.6342C17.783 19.6342 17.3845 19.2371 17.3845 18.7553V11.882ZM11.6831 15.3976C11.6831 13.9438 12.8659 12.7609 14.3198 12.7609H15.6267V18.0343H14.3198C12.866 18.0343 11.6831 16.8515 11.6831 15.3976ZM57.3693 40.8915L43.735 48.7632C42.8923 49.2496 41.8274 48.9497 41.351 48.1247L33.8058 35.0558C33.717 34.9019 33.619 34.7559 33.5152 34.6163H34.4921C34.9775 34.6163 35.3711 34.2229 35.3711 33.7374C35.3711 33.2519 34.9775 32.8585 34.4921 32.8585H30C28.4113 32.8585 26.9886 33.6799 26.1942 35.0558L18.649 48.1247C18.1718 48.951 17.1068 49.2492 16.2652 48.7633L2.63086 40.8915C1.8034 40.4137 1.50691 39.3485 1.99207 38.5078L5.31504 32.7522L15.3863 38.5669C15.8067 38.8096 16.3443 38.6654 16.5868 38.2452C16.8295 37.8248 16.6855 37.2873 16.2652 37.0446L6.19395 31.23L7.69371 28.6324C7.93383 28.7655 8.19223 28.8881 8.47043 28.998C13.6764 31.0564 19.1423 27.0721 19.1423 21.6442V21.2413C19.8386 20.998 20.3994 20.4732 20.6873 19.7921H24.5531C25.3557 20.8588 26.6317 21.5499 28.0664 21.5499H33.3398C34.4856 21.5499 35.4626 20.8151 35.8254 19.7921H38.9241V21.6442C38.9241 24.8671 40.5231 27.7857 43.0252 29.5459C46.2163 31.7907 50.3478 31.7322 53.1428 30.0814L53.8059 31.23L43.7347 37.0446C43.3144 37.2873 43.1704 37.8248 43.413 38.2452C43.6557 38.6656 44.1935 38.8094 44.6136 38.5669L54.6848 32.7522L58.0078 38.5077C58.4944 39.3506 58.1941 40.4154 57.3693 40.8915V40.8915Z" fill="black"/>
<path d="M23.6111 25.7531C22.237 25.7531 21.1191 26.871 21.1191 28.2452C21.1191 28.7307 21.5127 29.1241 21.998 29.1241C22.4834 29.1241 22.877 28.7307 22.877 28.2452C22.877 27.8403 23.2064 27.5109 23.6111 27.5109C24.0159 27.5109 24.3453 27.8403 24.3453 28.2452C24.3453 28.7307 24.7388 29.1241 25.2242 29.1241C25.7096 29.1241 26.1031 28.7307 26.1031 28.2452C26.1031 26.8711 24.9853 25.7531 23.6111 25.7531Z" fill="black"/>
<path d="M36.3885 25.7531C35.0143 25.7531 33.8965 26.871 33.8965 28.2452C33.8965 28.7307 34.29 29.1241 34.7754 29.1241C35.2608 29.1241 35.6543 28.7307 35.6543 28.2452C35.6543 27.8403 35.9837 27.5109 36.3885 27.5109C36.7932 27.5109 37.1227 27.8403 37.1227 28.2452C37.1227 28.7307 37.5162 29.1241 38.0016 29.1241C38.487 29.1241 38.8805 28.7307 38.8805 28.2452C38.8805 26.8711 37.7626 25.7531 36.3885 25.7531Z" fill="black"/>
<path d="M32.2887 28.8821C31.9229 28.5629 31.3676 28.6012 31.0487 28.9672C30.7838 29.2709 30.4017 29.4452 30.0002 29.4452C29.5987 29.4452 29.2164 29.2709 28.9517 28.9672C28.6327 28.6011 28.0776 28.5631 27.7116 28.8821C27.3457 29.201 27.3076 29.7562 27.6266 30.1221C28.2253 30.809 29.0905 31.203 30.0002 31.203C30.9099 31.203 31.7751 30.8091 32.3738 30.1221C32.6928 29.7562 32.6547 29.2009 32.2887 28.8821Z" fill="black"/>
</g>
<defs>
<clipPath id="clip0_2469_1607">
<rect width="60" height="60" fill="white"/>
</clipPath>
</defs>
</svg>
