<svg width="60" height="60" viewBox="0 0 60 60" fill="none" xmlns="http://www.w3.org/2000/svg">
<path d="M39.7572 41.8779C41.5329 41.8779 42.9726 40.4383 42.9726 38.6626V22.6889L52.0578 31.7742C53.1606 32.8769 54.9481 32.8769 56.0504 31.7742L58.2939 29.5307C59.3967 28.4284 59.3967 26.6404 58.2939 25.5381L46.7102 13.9543C44.317 11.5607 41.0706 10.2162 37.6859 10.2162H22.3137C18.929 10.2162 15.683 11.5607 13.2898 13.9543L1.70563 25.5381C0.603333 26.6408 0.603333 28.4284 1.70563 29.5307L3.94913 31.7742C5.05188 32.8769 6.83945 32.8769 7.9422 31.7742L17.0274 22.6889V38.6626C17.0274 40.4383 18.4671 41.8779 20.2428 41.8779H39.7572Z" fill="#FCF2D0"/>
<path d="M39.7572 51.8779C41.5329 51.8779 42.9726 50.4383 42.9726 48.6626V22.6889L52.0578 31.7742C53.1606 32.8769 54.9481 32.8769 56.0504 31.7742L58.2939 29.5307C59.3967 28.4284 59.3967 26.6404 58.2939 25.5381L46.7102 13.9543C44.317 11.5607 41.0706 10.2162 37.6859 10.2162H22.3137C18.929 10.2162 15.683 11.5607 13.2898 13.9543L1.70563 25.5381C0.603333 26.6408 0.603333 28.4284 1.70563 29.5307L3.94913 31.7742C5.05188 32.8769 6.83945 32.8769 7.9422 31.7742L17.0274 22.6889V48.6626C17.0274 50.4383 18.4671 51.8779 20.2428 51.8779H39.7572Z" fill="#FCF2D0"/>
<path d="M37.6863 10.2162H22.3137C18.929 10.2162 15.683 11.5607 13.2898 13.9543L1.70563 25.5381C0.603333 26.6408 0.603333 28.4284 1.70563 29.5311L3.94913 31.7746C5.05188 32.8769 6.83945 32.8769 7.9422 31.7746L17.0274 22.6894V48.6626C17.0274 50.4383 18.4671 51.8779 20.2428 51.8779H27.9648C25.8755 46.095 24.9834 26.5392 24.9037 17.946C25.0236 17.9094 25.1427 17.8669 25.2594 17.8156C26.4803 17.2805 28.0179 16.9838 29.0364 16.8332C29.6873 16.7375 30.3479 16.7389 30.9984 16.8373C32.0819 17.0012 33.5879 17.3107 34.7406 17.8156C35.143 17.9918 35.5691 18.0815 36.0068 18.0815C37.1695 18.0815 38.2301 17.4448 38.7744 16.4203C39.9971 14.1182 40.5876 12.1517 40.545 10.5413C39.6144 10.327 38.6558 10.2162 37.6863 10.2162Z" fill="#F6E3A3"/>
<path d="M28.123 10.2162H31.8785V51.8775H28.123V10.2162Z" fill="#8ED2E2"/>
<path d="M28.123 16.9879C28.454 16.9248 28.7648 16.8735 29.0377 16.8332C29.6886 16.7371 30.3487 16.7389 30.9992 16.8373C31.2697 16.8785 31.5673 16.9284 31.8785 16.9884V10.2162H28.123V16.9879Z" fill="#6FB6E1"/>
<path d="M9.51736 30.1995L3.28079 23.9633L1.70563 25.5381C0.603333 26.6408 0.603333 28.4284 1.70563 29.5311L3.94913 31.7746C5.05188 32.8769 6.83945 32.8769 7.9422 31.7746L9.51736 30.1995Z" fill="#6FB6E1"/>
<path d="M50.4824 30.1995L56.719 23.9633L58.2937 25.5381C59.3965 26.6408 59.3965 28.4284 58.2937 29.5311L56.0502 31.7746C54.9479 32.8769 53.1603 32.8769 52.0576 31.7746L50.4824 30.1995Z" fill="#8ED2E2"/>
<path d="M30 14.9454C30 14.9454 33.1366 15.1917 35.4469 16.2033C36.1089 16.4936 36.8816 16.2331 37.2203 15.595C38.5098 13.1665 40.7066 7.87891 35.3842 7.87891H33.0016L30 14.9454Z" fill="#FCF2D0"/>
<path d="M30.0004 14.9454C30.0004 14.9454 26.8638 15.1917 24.5534 16.2033C23.8915 16.4936 23.1188 16.2331 22.7801 15.595C21.4905 13.1665 19.2937 7.87891 24.6161 7.87891H26.9988L30.0004 14.9454Z" fill="#FCF2D0"/>
<path d="M35.7568 8.97525L30 14.9454L24.2432 8.97525C23.8467 8.56464 24.1383 7.87891 24.7092 7.87891H35.2908C35.8616 7.87891 36.1532 8.56464 35.7568 8.97525Z" fill="#4E5660"/>
<path d="M30.829 19.632C30.829 20.0893 30.4582 20.4605 30.0004 20.4605C29.5427 20.4605 29.1719 20.0893 29.1719 19.632C29.1719 19.1742 29.5427 18.8034 30.0004 18.8034C30.4582 18.8034 30.829 19.1742 30.829 19.632Z" fill="white"/>
<path d="M30.829 25.8516C30.829 26.3094 30.4582 26.6806 30.0004 26.6806C29.5427 26.6806 29.1719 26.3094 29.1719 25.8516C29.1719 25.3943 29.5427 25.0231 30.0004 25.0231C30.4582 25.0231 30.829 25.3943 30.829 25.8516Z" fill="white"/>
<path d="M30.829 32.0717C30.829 32.5295 30.4582 32.9007 30.0004 32.9007C29.5427 32.9007 29.1719 32.5295 29.1719 32.0717C29.1719 31.6144 29.5427 31.2432 30.0004 31.2432C30.4582 31.2432 30.829 31.6144 30.829 32.0717Z" fill="white"/>
<path d="M30.829 38.2918C30.829 38.7496 30.4582 39.1204 30.0004 39.1204C29.5427 39.1204 29.1719 38.7496 29.1719 38.2918C29.1719 37.834 29.5427 37.4633 30.0004 37.4633C30.4582 37.4633 30.829 37.834 30.829 38.2918Z" fill="white"/>
<path d="M30.829 44.8286C30.829 45.2863 30.4582 45.6571 30.0004 45.6571C29.5427 45.6571 29.1719 45.2863 29.1719 44.8286C29.1719 44.3708 29.5427 44 30.0004 44C30.4582 44 30.829 44.3708 30.829 44.8286Z" fill="white"/>
<path d="M23.2002 29.3494H21.9501C20.5818 29.3494 19.4727 28.2402 19.4727 26.872V23.4209C19.4727 23.0172 19.8004 22.6898 20.2042 22.6898H24.9461C25.3503 22.6898 25.6776 23.0172 25.6776 23.4209V26.872C25.6776 28.2402 24.5685 29.3494 23.2002 29.3494Z" fill="#FCF2D0"/>
<path d="M25.6776 25.1407H19.4727V23.4209C19.4727 23.0172 19.8004 22.6898 20.2042 22.6898H24.9461C25.3503 22.6898 25.6776 23.0172 25.6776 23.4209V25.1407Z" fill="#8ED2E2"/>
<path d="M25.0304 22.6949C25.0029 22.6917 24.9745 22.6898 24.9461 22.6898H20.2042C19.8004 22.6898 19.4727 23.0172 19.4727 23.4209V25.1407H25.1617C25.11 24.3268 25.0665 23.5106 25.0304 22.6949Z" fill="#6FB6E1"/>
<path d="M2.7626 28.0992L3.3165 28.6531C3.48816 28.8243 3.71292 28.9104 3.93814 28.9104C4.1629 28.9104 4.38766 28.8243 4.55933 28.6531C4.90265 28.3098 4.90265 27.7532 4.55933 27.4099L4.00589 26.856C3.66257 26.5131 3.10593 26.5131 2.7626 26.856C2.41928 27.1997 2.41928 27.7559 2.7626 28.0992ZM55.9941 26.8564L55.4407 27.4099C55.0974 27.7536 55.0974 28.3098 55.4407 28.6531C55.6123 28.8248 55.8371 28.9104 56.0619 28.9104C56.2871 28.9104 56.5118 28.8248 56.6835 28.6531L57.2374 28.0992C57.5807 27.7559 57.5807 27.1997 57.2374 26.8564C56.8941 26.5131 56.3374 26.5131 55.9941 26.8564ZM58.9156 24.9164L57.3418 23.3431L57.3409 23.3412L57.3395 23.3403L47.3318 13.3327C45.2151 11.2155 42.453 9.85599 39.4949 9.46002C39.4153 9.18948 39.3054 8.93176 39.1608 8.69098C38.486 7.569 37.2157 7 35.3842 7H24.6158C22.7847 7 21.514 7.569 20.8392 8.69098C20.6946 8.93222 20.5847 9.18994 20.5051 9.46048C18.2039 9.7681 16.0199 10.6543 14.1536 12.0478C13.7645 12.338 13.6844 12.8887 13.9751 13.2778C14.1476 13.5089 14.4118 13.6307 14.68 13.6307C14.8627 13.6307 15.0471 13.5739 15.2051 13.4563C16.7303 12.3178 18.4987 11.5676 20.3668 11.2581C20.5156 12.853 21.2549 14.5975 22.0033 16.007C22.5526 17.041 23.8275 17.4805 24.906 17.0085C25.6371 16.6886 26.4665 16.4492 27.2433 16.272V50.9986H20.2428C18.9546 50.9986 17.9068 49.9507 17.9068 48.6626V22.6889C17.9068 22.3337 17.6926 22.0128 17.3643 21.8769C17.0357 21.7409 16.6576 21.816 16.4062 22.0673L9.51736 28.9566L4.52408 23.9633L12.1577 16.3292C12.5011 15.9859 12.5011 15.4297 12.1577 15.0864C11.8144 14.7431 11.2578 14.7431 10.9145 15.0864L2.66144 23.3394L2.65915 23.3417L2.65732 23.344L1.08444 24.9164C0.384979 25.6159 0 26.5456 0 27.5344C0 28.5236 0.384979 29.4533 1.08444 30.1523L3.32794 32.3958C4.0274 33.0953 4.95712 33.4803 5.94589 33.4803C6.93466 33.4803 7.86438 33.0953 8.56384 32.3963L10.1385 30.8211L16.149 24.8111V48.6626C16.149 50.9203 17.9855 52.7564 20.2428 52.7564H39.7572C41.055 52.7564 42.2887 52.1315 43.0582 51.0851C43.3456 50.6937 43.2614 50.1435 42.87 49.856C42.4791 49.569 41.9289 49.6527 41.6414 50.0441C41.1955 50.6507 40.5089 50.9986 39.7572 50.9986H32.7571V16.2715C33.533 16.4482 34.362 16.6881 35.094 17.0085C35.3874 17.1372 35.6946 17.1981 35.9985 17.1981C36.812 17.1981 37.5966 16.76 37.9967 16.007C38.7451 14.5975 39.4844 12.8534 39.6332 11.2586C42.0694 11.6637 44.3335 12.8209 46.0886 14.576L55.4759 23.9629L50.4826 28.9562L43.5938 22.0673C43.3424 21.816 42.9643 21.7409 42.6361 21.8769C42.3074 22.0128 42.0932 22.3337 42.0932 22.6889V46.4589C42.0932 46.9446 42.4869 47.3378 42.9721 47.3378C43.4578 47.3378 43.851 46.9446 43.851 46.4589V24.8111L49.861 30.8206L51.4362 32.3963C52.1356 33.0953 53.0649 33.4803 54.0541 33.4803C55.0429 33.4803 55.9726 33.0953 56.6721 32.3963L58.9156 30.1523C59.615 29.4533 60 28.5236 60 27.5344C60 26.5456 59.615 25.6159 58.9156 24.9164ZM7.32101 31.153C6.95343 31.5201 6.46545 31.7224 5.94589 31.7224C5.42633 31.7224 4.93835 31.5201 4.57123 31.153L2.32727 28.9095C1.96014 28.5419 1.75781 28.0539 1.75781 27.5344C1.75781 27.0153 1.96014 26.5268 2.32727 26.1597L3.28079 25.2062L8.27408 30.1995L7.32101 31.153ZM34.7456 8.75781L30 13.6792L25.2544 8.75781H34.7456ZM24.2006 15.3986C23.9557 15.5062 23.6783 15.4128 23.5561 15.1825C22.2144 12.6561 21.7621 10.5678 22.3462 9.59644C22.5238 9.30072 22.8246 9.08328 23.2416 8.94366C23.3089 9.17941 23.4325 9.40097 23.6105 9.58545L28.1566 14.3C27.0099 14.4931 25.4965 14.831 24.2006 15.3986ZM30.9988 50.9986H29.0007V15.9488C29.4919 15.8779 29.8558 15.8412 30 15.8275C30.1451 15.8412 30.5081 15.8779 30.9988 15.9484V50.9986ZM36.4439 15.1825C36.3217 15.4132 36.0443 15.5062 35.7994 15.3986C34.5039 14.831 32.9901 14.4931 31.8434 14.3004L36.3895 9.58545C36.5675 9.40097 36.6911 9.17987 36.7584 8.94366C37.1759 9.08328 37.4762 9.30072 37.6538 9.59644C38.2379 10.5678 37.7856 12.6561 36.4439 15.1825ZM57.6727 28.9095L55.4292 31.153C55.0616 31.5201 54.5737 31.7224 54.0541 31.7224C53.535 31.7224 53.0466 31.5201 52.6794 31.153L51.7259 30.1995L56.7192 25.2062L57.6727 26.1597C58.0403 26.5268 58.2422 27.0153 58.2422 27.5344C58.2422 28.0539 58.0399 28.5424 57.6727 28.9095ZM23.1999 30.2283C25.0507 30.2283 26.5562 28.7227 26.5562 26.872V23.4209C26.5562 22.5333 25.8339 21.8109 24.9458 21.8109H20.2039C19.3158 21.8109 18.5934 22.5333 18.5934 23.4209V26.872C18.5934 28.7227 20.0995 30.2283 21.9498 30.2283H23.1999ZM20.3513 23.5688H24.7984V24.2618H20.3513V23.5688ZM20.3513 26.872V26.0196H24.7984V26.872C24.7984 27.7536 24.0811 28.4705 23.1999 28.4705H21.9498C21.0686 28.4705 20.3513 27.7536 20.3513 26.872Z" fill="black"/>
</svg>
