<svg width="60" height="60" viewBox="0 0 60 60" fill="none" xmlns="http://www.w3.org/2000/svg">
<path d="M53.3525 55.2421C51.1094 58.4076 47.4379 55.7239 41.901 55.7239C35.0882 55.7239 36.9379 59.1205 29.21 59.1205C21.4809 59.1205 24.0072 56.2467 14.9949 57.4221C11.8512 57.8325 9.64447 57.3458 8.10463 56.5384C5.71506 55.2843 4.69342 52.3997 5.70299 49.8964C8.71237 42.4299 12.2894 32.6684 14.9416 25.2746H14.9428C15.1764 24.6221 15.4027 23.9878 15.6219 23.3753C9.50397 22.6841 7.40737 18.4546 6.78393 16.651C6.61084 16.1474 6.71737 15.5905 7.05756 15.1801C7.42916 14.7311 7.86381 14.2698 8.34557 13.8026C12.2071 10.0439 19.0707 5.88226 20.7194 4.90538C20.9131 4.79042 21.1298 4.72022 21.3524 4.69843C21.4008 4.69362 21.4492 4.69116 21.4989 4.69116H37.8821C37.8821 4.69116 37.9014 4.70206 37.9389 4.72386C38.1204 4.83038 38.7318 5.18874 39.6106 5.73097C42.2968 7.38448 47.4887 10.745 50.6456 13.8269C51.1177 14.2881 51.5438 14.742 51.9093 15.1839C52.2495 15.5943 52.3524 16.1499 52.1793 16.6534C51.5438 18.4946 49.377 22.8488 42.9867 23.4117C43.2336 24.1344 43.4902 24.8667 43.7541 25.6051C47.186 35.1996 51.8779 45.8182 53.8038 50.0829C54.5629 51.763 54.4189 53.7361 53.3525 55.2421Z" fill="#FFA81E"/>
<path d="M41.5439 10.3404C41.5439 13.9115 38.6387 16.8167 35.0676 16.8167C32.8972 16.8167 30.9737 15.7417 29.7983 14.0979C28.6229 15.7418 26.6994 16.8167 24.529 16.8167C20.9579 16.8167 18.0527 13.9115 18.0527 10.3404C18.0527 7.92307 19.3843 5.81064 21.3526 4.69818C21.401 4.69338 21.4494 4.69092 21.4991 4.69092H37.8821C37.8821 4.69092 37.9015 4.70182 37.939 4.72361C38.1205 4.83014 38.7319 5.1885 39.6107 5.73072C40.8043 6.90506 41.5439 8.53795 41.5439 10.3404Z" fill="#FF7300"/>
<path d="M15.622 23.3752C9.50409 22.684 7.40748 18.4545 6.78405 16.6508C6.61096 16.1473 6.71748 15.5904 7.05768 15.18C7.42928 14.731 7.86393 14.2697 8.34569 13.8025C8.84315 15.5093 9.84311 17.9848 11.6806 19.3128C14.6669 21.47 16.9924 19.7836 16.9924 19.7836L15.622 23.3752Z" fill="#FF7300"/>
<path d="M40.9653 18.5561C41.0319 18.6251 44.0001 21.6853 47.3508 19.3127C49.4946 17.7959 50.325 15.3906 50.6457 13.8267C51.1179 14.2879 51.5439 14.7418 51.9095 15.1837C52.2497 15.5941 52.3525 16.1497 52.1795 16.6532C51.544 18.4944 49.3772 22.8486 42.9868 23.4115L40.9653 18.5561Z" fill="#FF7300"/>
<path d="M24.5286 15.001C27.1025 15.001 29.189 12.9145 29.189 10.3406C29.189 7.76672 27.1025 5.68018 24.5286 5.68018C21.9547 5.68018 19.8682 7.76672 19.8682 10.3406C19.8682 12.9145 21.9547 15.001 24.5286 15.001Z" fill="#FFE4CF"/>
<path d="M35.0685 15.001C37.6424 15.001 39.7289 12.9145 39.7289 10.3406C39.7289 7.76672 37.6424 5.68018 35.0685 5.68018C32.4946 5.68018 30.4081 7.76672 30.4081 10.3406C30.4081 12.9145 32.4946 15.001 35.0685 15.001Z" fill="#FFE4CF"/>
<path d="M37.9536 5.09183C37.9536 8.56843 34.3027 11.3864 29.7984 11.3864C25.294 11.3864 21.6432 8.56831 21.6432 5.09183C21.6432 4.95741 21.6493 4.82312 21.6602 4.69116H37.8821C37.8821 4.69116 37.9014 4.70206 37.9389 4.72386C37.9486 4.84608 37.9536 4.96831 37.9536 5.09183Z" fill="#C95100"/>
<path d="M56.5529 29.179C54.1281 30.2091 53.1947 32.3714 52.8426 33.6878C52.7863 33.8979 52.4869 33.8979 52.4307 33.6878C52.0785 32.3713 51.1451 30.2091 48.7204 29.179C48.547 29.1053 48.547 28.8606 48.7204 28.787C51.1451 27.7569 52.0785 25.5946 52.4307 24.2782C52.4869 24.0681 52.7863 24.0681 52.8426 24.2782C53.1947 25.5947 54.1281 27.7569 56.5529 28.787C56.7262 28.8607 56.7262 29.1054 56.5529 29.179Z" fill="#FFE571"/>
<path d="M11.2797 5.93728C8.85495 6.96735 7.92155 9.1297 7.5694 10.4461C7.51315 10.6562 7.21374 10.6562 7.15749 10.4461C6.80534 9.12958 5.87194 6.96735 3.44722 5.93728C3.27378 5.86356 3.27378 5.61888 3.44722 5.54528C5.87194 4.51521 6.80534 2.35286 7.15749 1.03649C7.21374 0.826377 7.51315 0.826377 7.5694 1.03649C7.92155 2.35298 8.85495 4.51521 11.2797 5.54528C11.4531 5.61899 11.4531 5.86368 11.2797 5.93728Z" fill="#FFE571"/>
<path d="M51.8919 43.5772C51.6992 43.1317 51.1818 42.9267 50.7364 43.1194C50.2908 43.312 50.0858 43.8294 50.2785 44.275C51.4172 46.9082 52.3887 49.0833 53.0032 50.4443C53.6444 51.8644 53.5033 53.5078 52.6351 54.7332C51.5604 56.2501 50.1321 56.0491 47.2596 55.4904C45.7049 55.1881 43.9428 54.8454 41.9015 54.8454C38.3489 54.8454 36.9306 55.7365 35.5589 56.5983C34.2135 57.4436 32.9425 58.2421 29.2098 58.2421C25.933 58.2421 24.6373 57.7148 23.3843 57.2051C21.6966 56.5185 20.1026 55.8697 14.8815 56.5507C12.2998 56.8876 10.1574 56.6216 8.51428 55.7603C6.52479 54.7174 5.66639 52.3382 6.51752 50.2259C7.97756 46.6029 9.70525 42.1072 11.6524 36.8635C11.8214 36.4084 11.5895 35.9025 11.1345 35.7335C10.6792 35.5643 10.1735 35.7965 10.0046 36.2515C8.06299 41.4802 6.34115 45.9608 4.88709 49.5689C3.69693 52.5223 4.90549 55.8532 7.69818 57.3171C9.66799 58.3497 12.1613 58.6782 15.1089 58.2938C19.8697 57.6727 21.1913 58.2107 22.7217 58.8333C24.0658 59.3802 25.5891 59.9999 29.2097 59.9999C33.4488 59.9999 35.0666 58.9834 36.4941 58.0866C37.7611 57.2906 38.8553 56.6031 41.9015 56.6031C43.7734 56.6031 45.4472 56.9286 46.924 57.2159C49.8039 57.7759 52.2908 58.2595 54.0694 55.7493C55.2966 54.017 55.5019 51.7071 54.6052 49.721C53.9935 48.3659 53.0261 46.1999 51.8919 43.5772Z" fill="black"/>
<path d="M6.38078 14.6197C5.84652 15.2644 5.68281 16.1528 5.95375 16.9379C6.58785 18.7764 8.65023 22.9854 14.4354 24.0853C13.3819 27.0285 12.3471 29.8856 11.3545 32.593C11.1873 33.0488 11.4214 33.5537 11.877 33.7208C11.9768 33.7575 12.079 33.7747 12.1796 33.7747C12.5378 33.7747 12.8744 33.5541 13.0048 33.1982C14.1107 30.182 15.2688 26.9801 16.4467 23.6813L18.696 17.7813C18.869 17.3277 18.6414 16.8199 18.1879 16.647C17.7341 16.4738 17.2264 16.7015 17.0535 17.1551L15.0514 22.4068C9.94469 21.5528 8.15606 17.9318 7.61547 16.3648C7.5434 16.1557 7.58887 15.9169 7.7343 15.7415C10.8299 12.0063 18.5516 7.22919 20.8182 5.86888C20.8326 5.9747 20.8488 6.08005 20.8689 6.18446C19.6829 7.22966 18.9892 8.7422 18.9892 10.3408C18.9892 13.3951 21.4742 15.8802 24.5287 15.8802C26.8506 15.8802 28.9288 14.397 29.7232 12.2639C29.7484 12.264 29.7732 12.2654 29.7984 12.2654C29.8237 12.2654 29.8486 12.264 29.8739 12.2639C30.6684 14.397 32.7466 15.8802 35.0685 15.8802C38.123 15.8802 40.608 13.3952 40.608 10.3408C40.608 8.79481 39.9582 7.32974 38.8421 6.28946C40.1047 7.06114 42.0448 8.28399 44.0889 9.71122C44.4869 9.98919 45.0347 9.89192 45.3127 9.49372C45.5906 9.09575 45.4933 8.54778 45.0952 8.26993C42.2952 6.31489 39.6863 4.73626 38.6944 4.14833C38.323 3.92825 37.8985 3.81177 37.4665 3.81177H21.4989C21.067 3.81177 20.6424 3.92813 20.2709 4.14833C17.8669 5.57368 9.76106 10.5411 6.38078 14.6197ZM29.7982 10.5075C26.3234 10.5075 23.4114 8.68466 22.6933 6.25665C22.693 6.25571 22.6927 6.25489 22.6925 6.25396C22.6266 6.0306 22.5794 5.80231 22.552 5.56958H37.0447C36.7184 8.33274 33.5941 10.5075 29.7982 10.5075ZM24.5286 14.1223C22.4433 14.1223 20.7469 12.4259 20.7469 10.3406C20.7469 9.48728 21.0366 8.66966 21.5499 8.01224C22.7076 10.0656 25.0449 11.6105 27.8745 12.1C27.231 13.3124 25.9465 14.1223 24.5286 14.1223ZM35.0684 14.1223C33.6504 14.1223 32.3658 13.3124 31.7225 12.1C34.5518 11.6106 36.8888 10.0658 38.0466 8.01271C38.5602 8.67001 38.8502 9.48751 38.8502 10.3408C38.85 12.4259 37.1536 14.1223 35.0684 14.1223Z" fill="black"/>
<path d="M47.0351 11.8783C48.9039 13.3372 50.3156 14.637 51.2309 15.7412C51.3785 15.9195 51.4226 16.1537 51.3488 16.3676C50.7893 17.9876 48.926 21.7266 43.5439 22.4635L41.3227 17.1301C41.136 16.682 40.6215 16.4701 40.1734 16.6567C39.7253 16.8433 39.5134 17.3578 39.7 17.8059L42.1651 23.7246C43.7953 28.4876 46.0023 34.1777 48.7254 40.6384C48.867 40.9743 49.1927 41.1762 49.5357 41.1762C49.6495 41.1762 49.7652 41.1539 49.8768 41.1069C50.3241 40.9184 50.5338 40.403 50.3453 39.9557C47.825 33.9764 45.7511 28.6657 44.1718 24.149C50.2182 23.1621 52.3561 18.8361 53.0104 16.9413C53.2821 16.1543 53.1189 15.2647 52.5844 14.6196C51.5884 13.4179 50.0854 12.0293 48.1168 10.4926C47.7342 10.1938 47.1818 10.2619 46.8832 10.6445C46.5845 11.0272 46.6525 11.5795 47.0351 11.8783Z" fill="black"/>
<path d="M28.2852 8.0437H31.3114C31.7968 8.0437 32.1903 7.65019 32.1903 7.16479C32.1903 6.6794 31.7968 6.28589 31.3114 6.28589H28.2852C27.7998 6.28589 27.4062 6.6794 27.4062 7.16479C27.4062 7.65019 27.7998 8.0437 28.2852 8.0437Z" fill="black"/>
<path d="M23.6558 23.3058C23.6393 23.4416 21.9674 37.0713 18.4551 52.4693C18.3471 52.9426 18.6431 53.4137 19.1165 53.5217C19.1823 53.5367 19.248 53.5438 19.3128 53.5438C19.7137 53.5438 20.0759 53.2677 20.1688 52.8603C23.7012 37.3745 25.3842 23.6542 25.4008 23.5174C25.4592 23.0356 25.116 22.5975 24.6341 22.5392C24.1517 22.4809 23.7142 22.8239 23.6558 23.3058Z" fill="black"/>
<path d="M34.9454 32.8298C34.4647 32.8977 34.1301 33.3424 34.1979 33.823C35.2604 41.3473 38.6044 52.3277 38.6381 52.4377C38.7539 52.8162 39.1019 53.0598 39.4782 53.0598C39.5633 53.0598 39.6499 53.0473 39.7355 53.0211C40.1997 52.8792 40.4608 52.3878 40.3189 51.9235C40.2856 51.8149 36.9817 40.9666 35.9384 33.5772C35.8707 33.0966 35.4265 32.7618 34.9454 32.8298Z" fill="black"/>
<path d="M56.8965 27.9781C54.8874 27.1246 54.0448 25.3715 53.6916 24.0509C53.564 23.5744 53.1302 23.2417 52.6366 23.2417C52.143 23.2417 51.7092 23.5744 51.5817 24.0511C51.2285 25.3715 50.3859 27.1246 48.3766 27.9781C47.9725 28.1499 47.7114 28.5444 47.7114 28.9832C47.7115 29.4219 47.9726 29.8163 48.3767 29.988C50.3858 30.8414 51.2283 32.5946 51.5815 33.915C51.709 34.3915 52.143 34.7243 52.6365 34.7243C53.1301 34.7243 53.564 34.3915 53.6915 33.9149C54.0447 32.5944 54.8874 30.8414 56.8963 29.988C57.3004 29.8163 57.5616 29.4218 57.5617 28.9832C57.5619 28.5444 57.3008 28.1499 56.8965 27.9781ZM52.6366 31.7726C52.15 30.8113 51.3889 29.7706 50.2045 28.983C51.3889 28.1955 52.1501 27.1545 52.6367 26.1933C53.1233 27.1546 53.8845 28.1955 55.0688 28.983C53.8844 29.7705 53.1231 30.8114 52.6366 31.7726Z" fill="black"/>
<path d="M6.30847 10.6733C6.43597 11.1498 6.86992 11.4826 7.36351 11.4826C7.8571 11.4826 8.29093 11.1498 8.41843 10.6732C8.77164 9.35273 9.61433 7.59973 11.6233 6.74625C12.0273 6.57457 12.2885 6.18012 12.2887 5.74148C12.2887 5.30273 12.0276 4.90816 11.6234 4.73637C9.61433 3.88289 8.77164 2.12977 8.41843 0.80918C8.29093 0.332695 7.8571 0 7.36351 0C6.86992 0 6.43609 0.332695 6.30847 0.809414C5.95539 2.12977 5.11269 3.88289 3.10351 4.73637C2.69945 4.90816 2.43835 5.30273 2.43835 5.74148C2.43847 6.18023 2.69957 6.57457 3.10363 6.74625C5.11257 7.59973 5.95527 9.35285 6.30847 10.6733ZM7.36351 2.95172C7.85007 3.91301 8.61132 4.95387 9.79562 5.74137C8.61132 6.52887 7.85007 7.56984 7.36351 8.53102C6.87695 7.56973 6.11582 6.52887 4.9314 5.74137C6.1157 4.95375 6.87695 3.91289 7.36351 2.95172Z" fill="black"/>
</svg>
