<svg width="60" height="60" viewBox="0 0 60 60" fill="none" xmlns="http://www.w3.org/2000/svg">
<g clip-path="url(#clip0_2469_1632)">
<path d="M55.0868 57.8501C55.1263 58.1384 55.0503 58.4315 54.8787 58.6525C54.7071 58.8735 54.4571 59.0004 54.1941 59.0001H35.2843C34.8392 58.9973 34.4613 58.6376 34.3915 58.1501L30 25V23L33.1561 20.2C34.0105 19.4415 34.5081 18.2938 34.5088 17.08V9.00005H39.0176C39.0176 15.9 45.7537 18.54 49.7214 19.5L55.0868 57.8501Z" fill="#02A9F4"/>
<path d="M47.0137 19.5L52.3791 57.85C52.4186 58.1384 52.3425 58.4314 52.171 58.6525C51.9994 58.8735 51.7494 59.0004 51.4864 59H54.1916C54.4546 59.0004 54.7047 58.8735 54.8762 58.6525C55.0478 58.4314 55.1238 58.1384 55.0844 57.85L49.7189 19.5H47.0137Z" fill="#0377BC"/>
<path d="M49.7195 19.5C45.7517 18.54 39.0156 15.9 39.0156 9.00005H48.2496L49.7195 19.5Z" fill="#0377BC"/>
<path d="M33.6055 1.00005H42.623V9.00005H33.6055V1.00005Z" fill="#0377BC"/>
<path d="M17.375 1.00005H33.6066V9.00005H17.375V1.00005Z" fill="#02A9F4"/>
<path d="M30.9004 1.00005H33.6057V9.00005H30.9004V1.00005Z" fill="#0377BC"/>
<path d="M17.375 1.00005V9.00007H11.748L12.749 1.85007C12.8134 1.35926 13.1945 0.996404 13.6417 1.00007L17.375 1.00005Z" fill="#0377BC"/>
<path d="M29.9994 9.00013V25.0001L25.6078 58.1501C25.5381 58.6377 25.1602 58.9974 24.7151 59.0001H5.80529C5.54231 59.0005 5.29228 58.8736 5.1207 58.6526C4.94913 58.4315 4.8731 58.1385 4.91255 57.8501L10.278 19.5001C14.2457 18.5401 20.9818 15.9001 20.9818 9.00013H29.9994Z" fill="#02A9F4"/>
<path d="M27.294 9.00005V25L22.9025 58.1501C22.8327 58.6376 22.4549 58.9973 22.0098 59.0001H24.715C25.1601 58.9973 25.538 58.6376 25.6078 58.1501L29.9993 25V9.00005H27.294Z" fill="#0377BC"/>
<path d="M48.25 9.00007H42.623V1.00005L46.3563 1.00007C46.8036 0.996404 47.1847 1.35926 47.2491 1.85007L48.25 9.00007Z" fill="#0377BC"/>
<path d="M34.5088 9.00005V17.08C34.5081 18.2938 34.0105 19.4415 33.1561 20.2L30 23V9.00005H34.5088Z" fill="#00BCD4"/>
<path d="M20.9812 9.00005C20.9812 15.9 14.2451 18.54 10.2773 19.5L11.7472 9.00005H20.9812Z" fill="#0377BC"/>
<path d="M11.0633 55C12.0593 55 12.8668 54.1046 12.8668 53C12.8668 51.8955 12.0593 51 11.0633 51C10.0672 51 9.25977 51.8955 9.25977 53C9.25977 54.1046 10.0672 55 11.0633 55Z" fill="#FFDC00"/>
<path d="M39.0164 55C40.0125 55 40.8199 54.1046 40.8199 53C40.8199 51.8955 40.0125 51 39.0164 51C38.0204 51 37.2129 51.8955 37.2129 53C37.2129 54.1046 38.0204 55 39.0164 55Z" fill="#FFDC00"/>
<path d="M29.9994 6.00005C30.4974 6.00005 30.9012 5.55233 30.9012 5.00005C30.9012 4.44776 30.4974 4.00005 29.9994 4.00005C29.5014 4.00005 29.0977 4.44776 29.0977 5.00005C29.0977 5.55233 29.5014 6.00005 29.9994 6.00005Z" fill="black"/>
<path d="M46.3606 6.38648e-05H13.6395C12.7488 -0.00411572 11.99 0.716466 11.8567 1.69306L4.02139 57.6931C3.94055 58.2701 4.0912 58.8576 4.43378 59.3011C4.77635 59.7446 5.27663 60 5.80325 60.0001H24.7122C25.6054 59.9955 26.3626 59.2704 26.4967 58.2911L30.0001 31.8731L33.5034 58.2901C33.6371 59.2698 34.3944 59.9955 35.2879 60.0001H54.1968C54.7235 60 55.2237 59.7446 55.5663 59.3011C55.9089 58.8576 56.0595 58.2701 55.9787 57.6931L48.1434 1.69306C48.0101 0.716466 47.2513 -0.00411572 46.3606 6.38648e-05V6.38648e-05ZM12.5204 10.0001H20.0167C19.4531 14.8231 14.8686 17.1161 11.377 18.1701L12.5204 10.0001ZM18.2772 8.00006V2.00006H32.7053V8.00006H18.2772ZM30.9018 10.0001H33.6071L33.6071 17.0781C33.6091 17.9895 33.2355 18.8521 32.5926 19.4201L30.9018 20.9201V10.0001ZM34.5088 8.00006V2.00006H41.7229V8.00006H34.5088ZM47.4797 10.0001L48.6231 18.1701C45.1315 17.1161 40.5506 14.8231 39.9834 10.0001H47.4797ZM46.3606 2.00006L47.2515 1.84706L46.3606 2.00006L47.2001 8.00006H43.5264V2.00006H46.3606ZM16.4737 2.00006V8.00006H12.8L13.6395 2.00006H16.4737ZM24.7122 58.0001H5.80325L11.0758 20.3201C15.1698 19.2261 21.253 16.5051 21.8247 10.0001H29.0983V24.9281L24.7122 58.0001ZM35.2879 58.0001L30.9018 24.9281V23.4801L33.7189 20.9801C34.79 20.0337 35.413 18.5968 35.4106 17.0781V10.0001H38.1754C38.7507 16.5001 44.8312 19.2261 48.9243 20.3201L54.1968 58.0001H35.2879Z" fill="black"/>
<path d="M16.4727 52.0001H13.6015C13.1623 50.6225 11.8921 49.7962 10.5935 50.0433C9.29491 50.2904 8.3457 51.539 8.3457 53.0001C8.3457 54.4612 9.29491 55.7098 10.5935 55.9569C11.8921 56.204 13.1623 55.3776 13.6015 54.0001H16.4727C16.9707 54.0001 17.3745 53.5524 17.3745 53.0001C17.3745 52.4478 16.9707 52.0001 16.4727 52.0001ZM11.0622 54.0001C10.5641 54.0001 10.1604 53.5524 10.1604 53.0001C10.1604 52.4478 10.5641 52.0001 11.0622 52.0001C11.5602 52.0001 11.9639 52.4478 11.9639 53.0001C11.9639 53.5524 11.5602 54.0001 11.0622 54.0001Z" fill="black"/>
<path d="M44.4278 52.0001H41.5566C41.1174 50.6225 39.8472 49.7962 38.5486 50.0433C37.25 50.2904 36.3008 51.539 36.3008 53.0001C36.3008 54.4612 37.25 55.7098 38.5486 55.9569C39.8472 56.204 41.1174 55.3776 41.5566 54.0001H44.4278C44.9258 54.0001 45.3295 53.5524 45.3295 53.0001C45.3295 52.4478 44.9258 52.0001 44.4278 52.0001ZM39.0173 54.0001C38.5192 54.0001 38.1155 53.5524 38.1155 53.0001C38.1155 52.4478 38.5192 52.0001 39.0173 52.0001C39.5153 52.0001 39.919 52.4478 39.919 53.0001C39.919 53.5524 39.5153 54.0001 39.0173 54.0001Z" fill="black"/>
</g>
<defs>
<clipPath id="clip0_2469_1632">
<rect width="60" height="60" fill="white"/>
</clipPath>
</defs>
</svg>
