<svg width="60" height="60" viewBox="0 0 60 60" fill="none" xmlns="http://www.w3.org/2000/svg">
<g clip-path="url(#clip0_2469_1527)">
<path d="M57.9969 20.929L50.5551 13.4871C47.6117 10.5437 43.619 8.89026 39.4561 8.89026H20.5441C16.3812 8.89026 12.389 10.5437 9.44515 13.4871L2.00329 20.929C0.504112 22.4286 0.504112 24.8593 2.00329 26.3585L5.41409 29.7693C6.91326 31.2685 9.34399 31.2685 10.8436 29.7693L14.0425 26.57V48.6113C14.0425 51.5886 16.4563 54.0029 19.434 54.0029H40.5662C43.544 54.0029 45.9578 51.5891 45.9578 48.6113V26.57L49.1571 29.7693C50.6562 31.2685 53.087 31.2685 54.5861 29.7693L57.9969 26.3585C59.4961 24.8593 59.4961 22.4286 57.9969 20.929V20.929Z" fill="#FCF2D0"/>
<path d="M24.4786 18.1334C25.7864 17.6377 27.2705 17.3314 28.3874 17.152C29.4458 16.9826 30.5229 16.9785 31.5808 17.1469C32.8506 17.3493 34.6075 17.7169 36.0376 18.3431C36.4413 18.5198 36.8679 18.6095 37.3065 18.6095C38.4697 18.6095 39.5298 17.9732 40.0741 16.9487C41.311 14.6196 42.5204 11.5508 42.0256 9.10266C41.1814 8.96259 40.3227 8.89026 39.4566 8.89026H20.5441C16.3812 8.89026 12.389 10.5437 9.44515 13.4871L2.00329 20.929C0.504112 22.4282 0.504112 24.8589 2.00329 26.3585L5.41409 29.7689C6.91326 31.2685 9.34399 31.2685 10.8436 29.7689L14.0425 26.57V48.6109C14.0425 51.5886 16.4563 54.0024 19.434 54.0024H32.6693C26.5449 48.2259 24.0052 32.4761 24.4786 18.1334V18.1334Z" fill="#F6E3A3"/>
<path d="M22.2289 24.224C22.2289 23.2196 21.5894 22.4057 20.7998 22.4057C20.0106 22.4057 19.3711 23.2196 19.3711 24.224C19.3711 25.2283 20.0106 26.0422 20.7998 26.0422C21.5894 26.0422 22.2289 25.2283 22.2289 24.224Z" fill="#6FB6E1"/>
<path d="M32.4984 15.4734H27.502V22.5705C27.502 23.4943 28.2504 24.2427 29.1737 24.2427H30.8262C31.75 24.2427 32.4984 23.4938 32.4984 22.5705V15.4734Z" fill="#8ED2E2"/>
<path d="M27.502 17.3095C27.8137 17.249 28.1122 17.1964 28.3873 17.1524C29.4561 16.9808 30.5447 16.9808 31.6136 17.1524C31.8887 17.1968 32.1872 17.249 32.4984 17.3095V15.4734H27.502V17.3095Z" fill="#6FB6E1"/>
<path d="M30.8436 18.3806C30.8436 18.8462 30.4659 19.2238 29.9999 19.2238C29.5339 19.2238 29.1562 18.8462 29.1562 18.3806C29.1562 17.9146 29.5339 17.537 29.9999 17.537C30.4659 17.537 30.8436 17.9146 30.8436 18.3806Z" fill="white"/>
<path d="M30.8436 21.3304C30.8436 21.7965 30.4659 22.1741 29.9999 22.1741C29.5339 22.1741 29.1562 21.7965 29.1562 21.3304C29.1562 20.8644 29.5339 20.4868 29.9999 20.4868C30.4659 20.4868 30.8436 20.8644 30.8436 21.3304Z" fill="white"/>
<path d="M30 15.4734C30 15.4734 33.815 15.7727 36.6243 17.0037C37.4295 17.3561 38.3698 17.0394 38.7817 16.263C40.35 13.31 43.022 6.87885 36.5488 6.87885H33.6507L30 15.4734Z" fill="#8ED2E2"/>
<path d="M29.9995 15.4734C29.9995 15.4734 26.1845 15.7727 23.3752 17.0037C22.57 17.3561 21.6297 17.0394 21.2177 16.263C19.6494 13.31 16.9775 6.87885 23.4507 6.87885H26.3488L29.9995 15.4734Z" fill="#8ED2E2"/>
<path d="M37.0024 8.21231L30.0009 15.4734L22.9994 8.21231C22.5174 7.71244 22.8717 6.87839 23.5661 6.87839H36.4357C37.1306 6.87885 37.4844 7.71244 37.0024 8.21231Z" fill="#4E5660"/>
<path d="M10.9878 29.6247L2.14748 20.7848L2.00329 20.929C0.504112 22.4286 0.504112 24.8593 2.00329 26.3585L5.41409 29.7693C6.91326 31.2685 9.34399 31.2685 10.8436 29.7693L10.9878 29.6247Z" fill="#6FB6E1"/>
<path d="M49.0117 29.6247L57.8521 20.7848L57.9962 20.929C59.4954 22.4282 59.4954 24.8589 57.9962 26.3585L54.5854 29.7689C53.0863 31.2685 50.6555 31.2685 49.1559 29.7689L49.0117 29.6247Z" fill="#8ED2E2"/>
<path d="M25.3657 39.3338C25.3657 38.1418 24.1522 37.1755 22.6553 37.1755C21.1588 37.1755 19.9453 38.1418 19.9453 39.3338C19.9453 40.5259 21.1588 41.4917 22.6553 41.4917C24.1522 41.4917 25.3657 40.5259 25.3657 39.3338V39.3338Z" fill="#EDA1AB"/>
<path d="M40.0551 39.3338C40.0551 38.1418 38.8416 37.1755 37.3452 37.1755C35.8483 37.1755 34.6348 38.1418 34.6348 39.3338C34.6348 40.5259 35.8483 41.4917 37.3452 41.4917C38.8416 41.4917 40.0551 40.5259 40.0551 39.3338V39.3338Z" fill="#EDA1AB"/>
<path d="M32.1843 37.6754C32.1843 36.3254 31.206 36.1986 29.9994 36.1986C28.7927 36.1986 27.8145 36.3254 27.8145 37.6754C27.8145 39.0258 28.7927 40.1207 29.9994 40.1207C31.206 40.1203 32.1843 39.0258 32.1843 37.6754Z" fill="#4E5660"/>
<path d="M23.9873 36.7855V35.6223C23.9873 35.1371 23.5941 34.7434 23.1084 34.7434C22.6231 34.7434 22.2295 35.1371 22.2295 35.6223V36.7855C22.2295 37.2707 22.6231 37.6644 23.1084 37.6644C23.5941 37.6644 23.9873 37.2707 23.9873 36.7855ZM45.9576 46.9561C45.4724 46.9561 45.0787 47.3493 45.0787 47.835V48.6109C45.0787 51.0993 43.0545 53.1235 40.5661 53.1235H19.4339C16.9455 53.1235 14.9213 51.0993 14.9213 48.6109V26.57C14.9213 26.2148 14.707 25.8944 14.3788 25.7579C14.0506 25.6224 13.6725 25.6975 13.4207 25.9488L10.9877 28.3818L3.39066 20.7848L4.8317 19.3438C5.17502 19.0004 5.17502 18.4438 4.8317 18.1005C4.48883 17.7576 3.93219 17.7576 3.58887 18.1005L1.38199 20.3078C0.490723 21.1986 0 22.3833 0 23.644C0 24.9042 0.490723 26.0889 1.38199 26.9802L4.79233 30.3905C5.68359 31.2818 6.86829 31.7725 8.12851 31.7725C9.38873 31.7725 10.5739 31.2818 11.4647 30.3905L13.1635 28.6922V48.6113C13.1635 52.0688 15.9764 54.8818 19.4339 54.8818H40.5661C44.0236 54.8818 46.8365 52.0688 46.8365 48.6113V47.835C46.8365 47.3493 46.4429 46.9561 45.9576 46.9561V46.9561ZM8.12851 30.0147C7.33795 30.0147 6.59454 29.7066 6.03561 29.1477L2.62482 25.7369C2.06589 25.178 1.75781 24.4345 1.75781 23.644C1.75781 23.0832 1.91299 22.5472 2.20276 22.083L9.68994 29.5702C9.22577 29.859 8.68927 30.0147 8.12851 30.0147ZM37.7705 36.7855V35.6223C37.7705 35.1371 37.3769 34.7434 36.8916 34.7434C36.4059 34.7434 36.0127 35.1371 36.0127 35.6223V36.7855C36.0127 37.2707 36.4059 37.6644 36.8916 37.6644C37.3769 37.6644 37.7705 37.2707 37.7705 36.7855ZM33.0638 37.6754C33.0638 36.4687 32.4541 35.9061 31.9423 35.6465C31.4072 35.3751 30.7787 35.3192 30 35.3192C29.2213 35.3192 28.5928 35.3751 28.0577 35.6465C27.5459 35.9061 26.9362 36.4687 26.9362 37.6754C26.9362 39.5082 28.3109 40.9992 30 40.9992C31.6891 40.9992 33.0638 39.5082 33.0638 37.6754ZM28.694 37.6754C28.694 37.24 28.694 37.0775 30 37.0775C31.306 37.0775 31.306 37.24 31.306 37.6754C31.306 38.5392 30.7201 39.2414 30 39.2414C29.2799 39.2414 28.694 38.5392 28.694 37.6754ZM58.618 20.3078L51.1761 12.8659C48.4525 10.1418 44.8732 8.45905 41.0481 8.09009C41.0252 8.04798 41.0033 8.00541 40.9785 7.96421C40.1949 6.6605 38.7044 5.99994 36.5483 5.99994H23.4512C21.2956 5.99994 19.8051 6.6605 19.0215 7.96421C18.9967 8.00541 18.9748 8.04798 18.9514 8.09009C15.1268 8.45905 11.5475 10.1418 8.82385 12.8659L6.49109 15.1982C6.14777 15.5416 6.14777 16.0982 6.49109 16.4411C6.66275 16.6132 6.88751 16.6988 7.11273 16.6988C7.33749 16.6988 7.56226 16.6132 7.73392 16.4411L10.0667 14.1088C12.3418 11.8337 15.2852 10.3707 18.4506 9.91977C18.3124 12.0731 19.3707 14.6585 20.4419 16.675C21.0635 17.8455 22.5069 18.3435 23.7282 17.8084C24.6341 17.4115 25.6622 17.1154 26.6226 16.8979V22.5705C26.6226 23.9772 27.767 25.1216 29.1733 25.1216H30.8263C32.2325 25.1216 33.3769 23.9772 33.3769 22.5705V16.897C34.3369 17.1149 35.3641 17.4106 36.2718 17.8084C36.6037 17.954 36.9521 18.0231 37.2963 18.0231C38.2169 18.0231 39.1054 17.5273 39.5576 16.675C40.6288 14.6585 41.6872 12.0731 41.5489 9.91977C44.7148 10.3707 47.6578 11.8337 49.9333 14.1088L56.6093 20.7848L49.0123 28.3818L46.5788 25.9488C46.3275 25.6975 45.9494 25.6224 45.6212 25.7579C45.2925 25.8944 45.0787 26.2148 45.0787 26.57V43.6093C45.0787 44.095 45.472 44.4883 45.9576 44.4883C46.4429 44.4883 46.8365 44.095 46.8365 43.6093V28.6917L48.5349 30.3905C49.4261 31.2818 50.6108 31.7725 51.871 31.7725C53.1313 31.7725 54.3164 31.2818 55.2072 30.3905L58.618 26.9802C59.5093 26.0889 60 24.9042 60 23.6435C60 22.3833 59.5093 21.1986 58.618 20.3078V20.3078ZM36.2192 7.75776L30 14.2072L23.7808 7.7573H36.2192V7.75776ZM23.0228 16.1985C22.6328 16.3692 22.1906 16.22 21.9946 15.8506C20.3311 12.7185 19.7827 10.1088 20.528 8.86966C20.7962 8.42334 21.2636 8.11115 21.9209 7.93308C21.974 8.26084 22.1246 8.57257 22.3659 8.82251L28.147 14.8178C26.7325 15.038 24.7211 15.4541 23.0228 16.1985ZM31.6191 22.5705C31.6191 23.0077 31.2634 23.3638 30.8263 23.3638H29.1737C28.7366 23.3638 28.3804 23.0077 28.3804 22.5705V16.5624C29.193 16.4347 29.8022 16.3738 30 16.3555C30.1982 16.3738 30.807 16.4342 31.6191 16.5619V22.5705ZM38.0054 15.8506C37.8094 16.22 37.3672 16.3692 36.9772 16.1985C35.2789 15.4541 33.2675 15.038 31.8535 14.8174L37.6346 8.82206C37.8754 8.57212 38.026 8.26084 38.0791 7.93308C38.7364 8.11069 39.2038 8.42334 39.472 8.86966C40.2168 10.1088 39.6689 12.7185 38.0054 15.8506ZM57.3752 25.7369L53.9644 29.1477C53.4055 29.7066 52.662 30.0147 51.8715 30.0147C51.3107 30.0147 50.7747 29.8595 50.3105 29.5702L57.7977 22.083C58.087 22.5472 58.2422 23.0832 58.2422 23.644C58.2422 24.4345 57.9341 25.178 57.3752 25.7369V25.7369Z" fill="black"/>
</g>
<defs>
<clipPath id="clip0_2469_1527">
<rect width="60" height="60" fill="white"/>
</clipPath>
</defs>
</svg>
