<svg width="60" height="60" viewBox="0 0 60 60" fill="none" xmlns="http://www.w3.org/2000/svg">
<g clip-path="url(#clip0_2469_1564)">
<path d="M47.3073 7.22865H12.6953V1.82179C12.6953 1.30112 13.1174 0.879004 13.6381 0.879004H46.3646C46.8853 0.879004 47.3074 1.30112 47.3074 1.82179V7.22865H47.3073Z" fill="#FFE177"/>
<path d="M46.3658 0.879004H43.8984C44.4191 0.879004 44.8412 1.30111 44.8412 1.82178V7.22857H47.3086V1.82178C47.3086 1.30111 46.8866 0.879004 46.3658 0.879004V0.879004Z" fill="#FFD15B"/>
<path d="M58.3475 44.5893V47.8495C58.3475 48.8819 57.71 49.8077 56.7456 50.1757L52.9041 51.6429C51.0842 52.3378 49.1131 52.5464 47.1865 52.2452L40.0848 51.1366L30.0019 49.5639L14.6947 51.9979L13.1255 52.2476C11.2446 52.5464 9.31923 52.3612 7.53093 51.7085L3.29338 50.1616C2.31016 49.8018 1.65625 48.8678 1.65625 47.8213V44.5893H58.3475Z" fill="#FFF3DE"/>
<path d="M40.0854 51.1366L30.0025 49.5639L14.6953 51.9979C15.5426 49.5229 16.2785 47.0408 16.916 44.5893H38.1553C38.719 46.7561 39.3589 48.9475 40.0854 51.1366V51.1366Z" fill="#FFE5C2"/>
<path d="M55.8788 44.5891V47.849C55.8788 48.8816 55.2415 49.8071 54.2769 50.1755L50.4361 51.6425C49.5456 51.9826 48.6192 52.2052 47.6797 52.3096C49.447 52.5054 51.238 52.2786 52.9035 51.6425L56.7444 50.1755C57.7091 49.8071 58.3462 48.8815 58.3462 47.849V44.5891H55.8788Z" fill="#FFE5C2"/>
<path d="M58.3471 44.5892C52.5873 46.2298 46.9107 47.2283 41.5024 47.7708L39.0321 47.7615L18.5287 47.6841C17.7084 47.5997 16.9115 47.5083 16.1404 47.4122C7.26686 46.3107 1.6582 44.5892 1.6582 44.5892C1.6582 25.5717 12.6962 7.22935 12.6962 7.22935H47.3091C47.3091 7.22935 58.3471 25.5717 58.3471 44.5892Z" fill="#FFE177"/>
<path d="M39.0303 47.7615L18.527 47.6842C17.7067 47.5998 16.9098 47.5084 16.1387 47.4123C20.5258 32.2507 21.0097 17.7244 21.0416 12.9747C21.0476 12.0789 21.776 11.3568 22.6717 11.3568H34.0334C34.0334 11.3568 33.5693 29.1343 39.0303 47.7615Z" fill="#FFD15B"/>
<path d="M47.3082 7.22902H44.8408C44.8408 7.22902 55.8791 25.572 55.8791 44.5886C50.1498 46.2209 44.5019 47.2171 39.1191 47.7622L41.5014 47.7712C46.9096 47.228 52.5871 46.2296 58.3467 44.5887C58.3464 25.5719 47.3082 7.22902 47.3082 7.22902V7.22902Z" fill="#FFD15B"/>
<path d="M16.8652 52.8483V55.7725C16.8652 57.737 18.5484 59.2796 20.5056 59.1086L29.0155 58.3651C29.6718 58.3077 30.3316 58.3077 30.9879 58.3651L39.4978 59.1086C41.4549 59.2796 43.1382 57.737 43.1382 55.7725V52.9281L16.8652 52.8483Z" fill="#FFF3DE"/>
<path d="M43.1391 52.9284V55.7726C43.1391 57.7366 41.4551 59.28 39.498 59.1089L38.2266 58.9976C39.627 58.605 40.6711 57.3194 40.6711 55.7726V52.9214L43.1391 52.9284Z" fill="#FFE5C2"/>
<path d="M36.502 11.3566H30.0018H23.5015C23.5015 11.3566 24.0542 32.5118 16.8652 52.8482L17.1473 52.928C25.5519 55.3062 34.4514 55.3062 42.856 52.928L43.138 52.8482C35.9492 32.5118 36.502 11.3566 36.502 11.3566V11.3566Z" fill="#FFE177"/>
<path d="M36.5015 11.3566H35.9147C34.8649 11.3566 34.018 12.2135 34.0284 13.2632C34.0841 18.9021 34.7678 36.1511 40.6702 52.8482L40.3881 52.928C36.5854 54.004 32.6813 54.5915 28.7676 54.6938C33.5036 54.8175 38.2538 54.2302 42.8556 52.928L43.1376 52.8482C35.9488 32.5118 36.5015 11.3566 36.5015 11.3566V11.3566Z" fill="#FFD15B"/>
<path d="M53.6436 18.4537C51.1851 12.2506 48.7602 7.97189 48.1859 6.98832V1.8217C48.1859 0.817275 47.3687 0 46.3643 0H13.6377C12.6332 0 11.8161 0.817275 11.8161 1.8217V6.98821C11.2416 7.97189 8.81673 12.2505 6.35835 18.4536C3.8123 24.8777 0.777344 34.6265 0.777344 44.5886V47.822C0.777344 49.2324 1.66728 50.5043 2.99104 50.9865L7.22765 52.534C9.09283 53.2148 11.1277 53.426 13.0928 53.1419C13.5733 53.0724 13.9064 52.6266 13.837 52.1462C13.7675 51.6658 13.3215 51.3326 12.8414 51.4021C11.1599 51.6451 9.42741 51.4656 7.83059 50.8828L3.59351 49.3352C2.96057 49.1046 2.53529 48.4965 2.53529 47.8221V45.7501C4.74759 46.3435 10.0463 47.62 17.3827 48.4448C16.9672 49.8153 16.5193 51.1879 16.0359 52.5553C16.0037 52.6487 15.9852 52.7487 15.9852 52.8477V55.7725C15.9852 58.214 18.147 60.1968 20.582 59.9843L29.0911 59.2401C29.6949 59.188 30.3073 59.188 30.9101 59.2401L39.4201 59.9843C41.8549 60.1968 44.0169 58.2142 44.0169 55.7725C44.0169 54.7467 44.1336 53.6535 43.9902 52.6361C47.1298 53.1264 50.1269 53.6441 53.2176 52.4635L57.0579 50.997C58.354 50.5017 59.2247 49.2366 59.2247 47.8486V44.5886C59.2246 34.6265 56.1896 24.8777 53.6436 18.4537V18.4537ZM13.5739 1.8217C13.5739 1.78654 13.6025 1.75783 13.6377 1.75783H29.122V3.34691C29.122 3.83231 29.5155 4.22583 30.001 4.22583C30.4865 4.22583 30.8799 3.83231 30.8799 3.34691V1.75783H46.3643C46.3994 1.75783 46.428 1.78654 46.428 1.8217V6.34964H13.5739V1.8217ZM2.53975 43.9271C2.67006 34.4842 5.55256 25.2643 7.97965 19.1339C10.21 13.5003 12.4658 9.39444 13.2004 8.10783H17.3889L15.432 15.5695C15.3089 16.0389 15.5898 16.5194 16.0594 16.6426C16.1341 16.6621 16.209 16.6715 16.2828 16.6715C16.6727 16.6715 17.0289 16.4102 17.1325 16.0153L19.2062 8.10771H41.0567L43.1303 16.0153C43.2339 16.4101 43.5901 16.6715 43.98 16.6715C44.0538 16.6715 44.1288 16.6621 44.2034 16.6426C44.673 16.5194 44.9538 16.0389 44.8307 15.5695L42.8739 8.10783H46.8016C47.5343 9.39034 49.7802 13.4766 52.0094 19.1013C54.442 25.2392 57.3311 34.4697 57.4621 43.9237C52.5656 45.2791 47.4184 46.251 42.1414 46.8195C40.7017 41.7806 39.5636 36.3704 38.7486 30.6606C38.68 30.18 38.2355 29.8459 37.7544 29.9147C37.2738 29.9832 36.94 30.4284 37.0085 30.9089C37.8718 36.9571 39.0935 42.6782 40.6497 47.9886C40.655 48.0093 41.9552 52.1224 41.9995 52.2521C34.1352 54.361 25.867 54.3611 18.0022 52.2521C18.4888 50.8297 19.3789 47.9053 19.3879 47.8611C21.9477 39.0623 23.1708 30.559 23.7533 24.5611C24.5102 16.7667 24.3807 11.3871 24.3793 11.3336C24.3668 10.8483 23.9643 10.4653 23.4778 10.4779C22.9925 10.4905 22.6095 10.8942 22.6222 11.3794C22.6271 11.5689 23.0035 28.7174 17.8853 46.7318C10.0049 45.8653 4.35641 44.4283 2.53975 43.9271V43.9271ZM41.4578 57.5933C40.9409 58.067 40.2714 58.2943 39.5732 58.2331L31.0625 57.4889C30.3579 57.4279 29.644 57.4281 28.9388 57.4889L20.429 58.233C19.0047 58.3576 17.743 57.2036 17.743 55.7724V54.0017C21.7627 55.0615 25.8812 55.5916 30.0011 55.5916C34.1199 55.5916 38.2402 55.0613 42.2592 54.0017V55.7724C42.259 56.4732 41.9745 57.1198 41.4578 57.5933ZM56.4305 49.3549L52.5902 50.8214C49.5339 51.989 46.4525 51.2417 43.3535 50.7577C43.1111 50.025 42.8749 49.2842 42.6462 48.5338C47.7411 47.969 52.7162 47.0326 57.4666 45.7447V47.8487C57.4668 48.5128 57.0503 49.1181 56.4305 49.3549V49.3549Z" fill="black"/>
<path d="M37.3365 27.4067C37.3689 27.4067 37.402 27.405 37.4352 27.4012C37.9175 27.3473 38.2649 26.9126 38.2111 26.4302C37.231 17.6577 37.3781 11.4413 37.3796 11.3795C37.3921 10.8942 37.0092 10.4908 36.5239 10.4781C36.0406 10.4656 35.6351 10.8484 35.6225 11.3337C35.6207 11.3965 35.4695 17.7238 36.464 26.6253C36.5142 27.0746 36.8947 27.4067 37.3365 27.4067V27.4067Z" fill="black"/>
</g>
<defs>
<clipPath id="clip0_2469_1564">
<rect width="60" height="60" fill="white"/>
</clipPath>
</defs>
</svg>
